<svg width="23" height="20" viewBox="0 0 23 20" fill="none" xmlns="http://www.w3.org/2000/svg">
<g id="Brands">
<g clip-path="url(#clip0_1_1243)">
<path id="Vector" d="M22.7254 10.2302C22.7254 9.55039 22.6621 8.86694 22.5268 8.19819H11.6797V12.049H17.8913C17.6336 13.291 16.8054 14.3896 15.5926 15.0878V17.5864H19.2985C21.4747 15.8447 22.7254 13.2726 22.7254 10.2302Z" fill="#4285F4"/>
<path id="Vector_2" d="M11.6797 20.0007C14.7813 20.0007 17.397 19.1152 19.3027 17.5866L15.5968 15.088C14.5658 15.6979 13.2347 16.0433 11.6839 16.0433C8.68374 16.0433 6.13992 14.2833 5.22719 11.9169H1.40302V14.4927C3.35525 17.8695 7.33155 20.0007 11.6797 20.0007Z" fill="#34A853"/>
<path id="Vector_3" d="M5.22295 11.917C4.74123 10.675 4.74123 9.33019 5.22295 8.08823V5.51244H1.403C-0.228084 8.33809 -0.228084 11.6671 1.403 14.4928L5.22295 11.917Z" fill="#FBBC04"/>
<path id="Vector_4" d="M11.6797 3.95805C13.3192 3.936 14.9038 4.47247 16.0912 5.45722L19.3745 2.60218C17.2955 0.904587 14.5362 -0.0287217 11.6797 0.000673888C7.33155 0.000673888 3.35525 2.13185 1.40302 5.51234L5.22297 8.08813C6.13147 5.71811 8.67952 3.95805 11.6797 3.95805Z" fill="#EA4335"/>
</g>
</g>
<defs>
<clipPath id="clip0_1_1243">
<rect width="23" height="20" rx="10" fill="white"/>
</clipPath>
</defs>
</svg>
